# This file uses centimeters as units for non-parametric coordinates.

mtllib cube exclaim2.mtl
g default
v -2.236323 1.160435 -0.245946
v -0.965059 1.160435 -0.245946
v -2.236323 2.431699 -0.245946
v -0.965059 2.431699 -0.245946
v -2.236323 2.431699 -1.517210
v -0.965059 2.431699 -1.517210
v -2.236323 1.160435 -1.517210
v -0.965059 1.160435 -1.517210
vt 0.375000 0.000000
vt 0.625000 0.000000
vt 0.375000 0.250000
vt 0.625000 0.250000
vt 0.375000 0.500000
vt 0.625000 0.500000
vt 0.375000 0.750000
vt 0.625000 0.750000
vt 0.375000 1.000000
vt 0.625000 1.000000
vt 0.875000 0.000000
vt 0.875000 0.250000
vt 0.125000 0.000000
vt 0.125000 0.250000
vn 0.000000 0.000000 1.000000
vn 0.000000 0.000000 1.000000
vn 0.000000 0.000000 1.000000
vn 0.000000 0.000000 1.000000
vn 0.000000 1.000000 0.000000
vn 0.000000 1.000000 0.000000
vn 0.000000 1.000000 0.000000
vn 0.000000 1.000000 0.000000
vn 0.000000 0.000000 -1.000000
vn 0.000000 0.000000 -1.000000
vn 0.000000 0.000000 -1.000000
vn 0.000000 0.000000 -1.000000
vn 0.000000 -1.000000 0.000000
vn 0.000000 -1.000000 0.000000
vn 0.000000 -1.000000 0.000000
vn 0.000000 -1.000000 0.000000
vn 1.000000 0.000000 0.000000
vn 1.000000 0.000000 0.000000
vn 1.000000 0.000000 0.000000
vn 1.000000 0.000000 0.000000
vn -1.000000 0.000000 0.000000
vn -1.000000 0.000000 0.000000
vn -1.000000 0.000000 0.000000
vn -1.000000 0.000000 0.000000
s off
g cubeexclaim_ball_mesh cubeexclaim_group
usemtl initialShadingGroup
f 1/1/1 2/2/2 4/4/3 3/3/4
f 3/3/5 4/4/6 6/6/7 5/5/8
f 5/5/9 6/6/10 8/8/11 7/7/12
f 7/7/13 8/8/14 2/10/15 1/9/16
f 2/2/17 8/11/18 6/12/19 4/4/20
f 7/13/21 1/1/22 3/3/23 5/14/24
g default
v -2.163832 3.211038 -0.508846
v -1.037550 3.211038 -0.508846
v -2.776319 9.122298 0.276434
v -0.425063 9.122298 0.276434
v -2.776319 9.122298 -2.039590
v -0.425063 9.122298 -2.039590
v -2.163832 3.211038 -1.254311
v -1.037550 3.211038 -1.254311
vt 0.375000 0.000000
vt 0.625000 0.000000
vt 0.375000 0.250000
vt 0.625000 0.250000
vt 0.375000 0.500000
vt 0.625000 0.500000
vt 0.375000 0.750000
vt 0.625000 0.750000
vt 0.375000 1.000000
vt 0.625000 1.000000
vt 0.875000 0.000000
vt 0.875000 0.250000
vt 0.125000 0.000000
vt 0.125000 0.250000
vn 0.000000 -0.131688 0.991291
vn 0.000000 -0.131688 0.991291
vn 0.000000 -0.131688 0.991291
vn 0.000000 -0.131688 0.991291
vn 0.000000 1.000000 0.000000
vn 0.000000 1.000000 0.000000
vn 0.000000 1.000000 0.000000
vn 0.000000 1.000000 0.000000
vn 0.000000 -0.131688 -0.991291
vn 0.000000 -0.131688 -0.991291
vn 0.000000 -0.131688 -0.991291
vn 0.000000 -0.131688 -0.991291
vn 0.000000 -1.000000 0.000000
vn 0.000000 -1.000000 0.000000
vn 0.000000 -1.000000 0.000000
vn 0.000000 -1.000000 0.000000
vn 0.994675 -0.103062 0.000000
vn 0.994675 -0.103062 0.000000
vn 0.994675 -0.103062 0.000000
vn 0.994675 -0.103062 0.000000
vn -0.994675 -0.103062 0.000000
vn -0.994675 -0.103062 0.000000
vn -0.994675 -0.103062 0.000000
vn -0.994675 -0.103062 0.000000
s off
g cubeexclaim_group cubeexclaim_point_mesh
usemtl initialShadingGroup
f 9/15/25 10/16/26 12/18/27 11/17/28
f 11/17/29 12/18/30 14/20/31 13/19/32
f 13/19/33 14/20/34 16/22/35 15/21/36
f 15/21/37 16/22/38 10/24/39 9/23/40
f 10/16/41 16/25/42 14/26/43 12/18/44
f 15/27/45 9/15/46 11/17/47 13/28/48
